<svg width="300" height="50" viewBox="0 0 300 50" fill="none" xmlns="http://www.w3.org/2000/svg">
  <path d="M0 40V0h25.2c7.4 0 13 1.8 16.8 5.4 3.8 3.6 5.7 8.8 5.7 15.6 0 6.8-1.9 12-5.7 15.6-3.8 3.6-9.4 5.4-16.8 5.4H0zm15.6-12h9.6c2.8 0 4.9-.7 6.3-2.1 1.4-1.4 2.1-3.5 2.1-6.3 0-2.8-.7-4.9-2.1-6.3-1.4-1.4-3.5-2.1-6.3-2.1h-9.6v16.8z" fill="currentColor"/>
  <path d="M89.4 40h-15.6V0h15.6v40zM142.8 40h-15.6V24h-16.8v16h-15.6V0h15.6v16h16.8V0h15.6v40z" fill="currentColor"/>
  <path d="M187.2 40h-42V0h42v12h-26.4v8h24v12h-24v8h26.4v-8z" fill="currentColor"/>
  <path d="M232.8 40h-42V0h15.6v28h26.4v12z" fill="currentColor"/>
  <path d="M300 28.8l-12 11.2h-30v-40h15.6v28h14.4l12-11.2v12z" fill="currentColor"/>
</svg>